#!OML:ASF X:\für Bonn\!DataBase\2005_08_10_Bjorn_Final\c3d\bjorn.ASF
:FULLY-SPECIFIED
:DEGREES
62
root 0.923012 15.5674 3.55631 -175.083 1.50711 -182.234
lowerback 16.0952 -0.731297 3.47773
upperback 10.1276 1.34798 -2.19313
thorax 1.87458 1.6825 -4.44064
lowerneck -15.9057 -1.5438 1.97193
upperneck -1.36709 -2.91199 -0.13
head 2.27444 -1.67372 -0.592416
rclavicle -1.32192e-014 7.55382e-015
rhumerus 79.1425 0.0863816 -48.015
rradius 16.5508
rwrist 31.7684
rhand -11.4586 8.38285
rfingers 7.12502
rthumb 14.5787 -21.0848
lclavicle -1.32192e-014 7.55382e-015
lhumerus 82.7506 -4.65209 56.3647
lradius 12.0082
lwrist -38.9507
lhand -36.2199 -13.9617
lfingers 7.12502
lthumb -9.32201 15.8122
rfemur -50.9397 -10.1749 14.3862
rtibia 89.3814
rfoot -33.0932 13.2454
rtoes -28.325
lfemur -52.3385 2.54545 -24.2633
ltibia 93.5549
lfoot -25.0601 0.985516
ltoes -29.9708
63
root 0.916344 15.3325 3.59651 -175.14 1.54898 -182.3
lowerback 16.7597 -0.846204 3.38895
upperback 10.3091 1.29274 -2.20783
thorax 1.71705 1.68737 -4.41404
lowerneck -15.9937 -1.41062 2.13078
upperneck -1.69117 -2.79606 -0.238883
head 2.17783 -1.63839 -0.64536
rclavicle 4.37326e-015 6.75868e-015
rhumerus 79.5967 -0.206225 -47.4972
rradius 16.7022
rwrist 31.168
rhand -11.5878 8.39976
rfingers 7.12502
rthumb 14.4542 -21.0768
lclavicle 4.37326e-015 6.75868e-015
lhumerus 83.1349 -4.20789 56.3193
lradius 11.928
lwrist -39.0427
lhand -36.3289 -14.1001
lfingers 7.12502
lthumb -9.42713 15.6691
rfemur -52.5882 -10.5323 14.1717
rtibia 91.9668
rfoot -33.337 13.8895
rtoes -28.5993
lfemur -53.8439 2.58404 -24.2056
ltibia 95.9948
lfoot -25.4693 0.254517
ltoes -29.8873
64
root 0.91125 15.0948 3.6352 -175.233 1.54834 -182.35
lowerback 17.4746 -0.966221 3.33069
upperback 10.4778 1.23827 -2.2262
thorax 1.52317 1.69427 -4.41029
lowerneck -16.1412 -1.2926 2.31209
upperneck -1.94268 -2.70384 -0.358076
head 2.11662 -1.61364 -0.709081
rclavicle -1.17283e-014 1.17283e-014
rhumerus 79.9791 -0.519062 -46.8758
rradius 16.8796
rwrist 30.3079
rhand -11.7243 8.36307
rfingers 7.12502
rthumb 14.3227 -21.1229
lclavicle -1.17283e-014 1.17283e-014
lhumerus 83.514 -3.82276 56.2659
lradius 11.9117
lwrist -38.9729
lhand -36.4067 -14.2062
lfingers 7.12502
lthumb -9.50222 15.5595
rfemur -54.1853 -10.934 13.958
rtibia 94.5217
rfoot -33.5362 14.5622
rtoes -28.8884
lfemur -55.2765 2.62603 -24.1408
ltibia 98.391
lfoot -25.885 -0.399827
ltoes -30.0066
65
root 0.906941 14.8527 3.67252 -175.375 1.52774 -182.381
lowerback 18.2391 -1.09741 3.27471
upperback 10.64 1.17364 -2.23134
thorax 1.29843 1.69635 -4.39334
lowerneck -16.3066 -1.17567 2.49003
upperneck -2.1678 -2.61305 -0.487166
head 2.06796 -1.58967 -0.776185
rclavicle 2.5842e-015 -1.03368e-014
rhumerus 80.3764 -0.818636 -46.7814
rradius 16.9998
rwrist 29.8192
rhand -11.8431 8.43436
rfingers 7.12502
rthumb 14.2082 -21.0597
lclavicle 2.5842e-015 -1.03368e-014
lhumerus 83.8738 -3.4354 56.3251
lradius 11.9218
lwrist -38.9093
lhand -36.3884 -14.3192
lfingers 7.12502
lthumb -9.48459 15.4473
rfemur -55.7308 -11.4069 13.755
rtibia 97.0517
rfoot -33.7145 15.1757
rtoes -29.4994
lfemur -56.6561 2.71417 -24.0675
ltibia 100.764
lfoot -26.3216 -0.885817
ltoes -30.6366
66
root 0.905118 14.6107 3.70667 -175.56 1.42764 -182.392
lowerback 19.0511 -1.23659 3.2452
upperback 10.7772 1.10297 -2.22401
thorax 1.02531 1.6945 -4.37863
lowerneck -16.5635 -1.08 2.68311
upperneck -2.24925 -2.549 -0.608969
head 2.08455 -1.57396 -0.848932
rclavicle -3.08116e-015 1.55052e-014
rhumerus 80.7303 -1.13171 -47.3351
rradius 17.0585
rwrist 29.8927
rhand -11.9483 8.54694
rfingers 7.12502
rthumb 14.1068 -20.9542
lclavicle -3.08116e-015 1.55052e-014
lhumerus 84.1882 -3.13713 56.4445
lradius 12.0011
lwrist -38.7652
lhand -36.3439 -14.4044
lfingers 7.12502
lthumb -9.44161 15.3641
rfemur -57.1873 -11.9917 13.5604
rtibia 99.5424
rfoot -33.8933 15.812
rtoes -30.1335
lfemur -57.9589 2.76409 -23.9516
ltibia 103.087
lfoot -26.7572 -1.43282
ltoes -31.066
67
root 0.905078 14.3653 3.73813 -175.756 1.30533 -182.352
lowerback 19.8583 -1.39126 3.25078
upperback 10.9033 1.01598 -2.19749
thorax 0.744609 1.68425 -4.35968
lowerneck -16.8068 -0.973591 2.8501
upperneck -2.33251 -2.46655 -0.72841
head 2.09899 -1.54912 -0.914992
rclavicle -3.47873e-015 -9.93923e-015
rhumerus 81.1315 -1.40599 -48.6761
rradius 17.015
rwrist 30.6851
rhand -12.0228 8.80659
rfingers 7.12502
rthumb 14.035 -20.6995
lclavicle -3.47873e-015 -9.93923e-015
lhumerus 84.4732 -2.82895 56.5307
lradius 12.0885
lwrist -38.5492
lhand -36.2878 -14.4057
lfingers 7.12502
lthumb -9.38754 15.3653
rfemur -58.6272 -12.6424 13.4266
rtibia 102.008
rfoot -34.1012 16.4466
rtoes -30.8771
lfemur -59.2409 2.86036 -23.7745
ltibia 105.391
lfoot -27.2232 -1.97652
ltoes -31.5257
68
root 0.90425 14.1168 3.7677 -175.991 1.24191 -182.329
lowerback 20.7032 -1.52357 3.24764
upperback 11.0242 0.962469 -2.20757
thorax 0.447165 1.69285 -4.3817
lowerneck -17.0547 -0.866904 3.12331
upperneck -2.37938 -2.40077 -0.885099
head 2.1256 -1.53278 -1.01382
rclavicle 3.47873e-015 -8.94531e-015
rhumerus 81.5042 -1.71798 -49.7177
rradius 17.0176
rwrist 31.099
rhand -12.0204 8.97921
rfingers 7.12502
rthumb 14.0373 -20.5268
lclavicle 3.47873e-015 -8.94531e-015
lhumerus 84.7595 -2.56828 56.432
lradius 12.2124
lwrist -38.1265
lhand -36.2427 -14.3201
lfingers 7.12502
lthumb -9.344 15.4528
rfemur -60.0462 -13.3402 13.2595
rtibia 104.46
rfoot -34.3758 17.0005
rtoes -31.8927
lfemur -60.4601 3.05109 -23.6322
ltibia 107.656
lfoot -27.6727 -2.56957
ltoes -31.6938
69
root 0.902665 13.8675 3.79109 -176.237 1.17609 -182.251
lowerback 21.5082 -1.65217 3.28836
upperback 11.1527 0.923039 -2.17703
thorax 0.182743 1.71013 -4.38601
lowerneck -17.375 -0.774927 3.31121
upperneck -2.37645 -2.34206 -1.02647
head 2.18334 -1.51856 -1.09544
rclavicle 1.70955e-014 -2.22639e-014
rhumerus 81.8551 -2.0539 -50.061
rradius 17.0832
rwrist 30.859
rhand -12.0162 9.09529
rfingers 7.12502
rthumb 14.0414 -20.4104
lclavicle 1.70955e-014 -2.22639e-014
lhumerus 85.0322 -2.32903 56.296
lradius 12.3504
lwrist -37.5698
lhand -36.2659 -14.1345
lfingers 7.12502
lthumb -9.36633 15.6374
rfemur -61.4054 -14.1185 13.1282
rtibia 106.861
rfoot -34.5822 17.7838
rtoes -32.4369
lfemur -61.6261 3.30149 -23.45
ltibia 109.884
lfoot -28.1184 -3.2778
ltoes -31.3324
70
root 0.90233 13.6166 3.81022 -176.485 1.14092 -182.173
lowerback 22.2619 -1.77295 3.30849
upperback 11.2858 0.889375 -2.15799
thorax -0.0473001 1.73047 -4.39005
lowerneck -17.5389 -0.674948 3.52528
upperneck -2.47291 -2.27405 -1.1687
head 2.17921 -1.50142 -1.17723
rclavicle 2.98177e-016 3.77691e-015
rhumerus 82.2216 -2.39198 -50.4398
rradius 17.1367
rwrist 30.619
rhand -11.9574 9.17758
rfingers 7.12502
rthumb 14.0981 -20.3242
lclavicle 2.98177e-016 3.77691e-015
lhumerus 85.316 -2.05872 55.9653
lradius 12.4485
lwrist -36.8504
lhand -36.33 -13.9241
lfingers 7.12502
lthumb -9.42819 15.845
rfemur -62.7557 -14.9217 12.971
rtibia 109.241
rfoot -34.6798 18.7693
rtoes -32.7077
lfemur -62.7392 3.63362 -23.2892
ltibia 112.06
lfoot -28.5569 -4.08799
ltoes -30.4791
71
root 0.901817 13.3641 3.82801 -176.769 1.08431 -182.094
lowerback 23.0493 -1.89622 3.35058
upperback 11.4065 0.860523 -2.14691
thorax -0.30311 1.75434 -4.41771
lowerneck -17.5451 -0.581975 3.77824
upperneck -2.62515 -2.21277 -1.31767
head 2.12748 -1.48671 -1.26494
rclavicle -6.16232e-015 2.5842e-015
rhumerus 82.5537 -2.70819 -51.1963
rradius 17.1163
rwrist 30.6526
rhand -11.9418 9.34167
rfingers 7.12502
rthumb 14.1131 -20.159
lclavicle -6.16232e-015 2.5842e-015
lhumerus 85.5321 -1.86837 55.8954
lradius 12.6376
lwrist -36.3565
lhand -36.4445 -13.6875
lfingers 7.12502
lthumb -9.53868 16.0766
rfemur -64.0571 -15.8355 12.7837
rtibia 111.581
rfoot -34.7706 19.8164
rtoes -33.003
lfemur -63.8196 4.01075 -23.1578
ltibia 114.228
lfoot -28.9765 -4.88728
ltoes -29.4421
72
root 0.901633 13.1114 3.84471 -177.074 1.02634 -181.981
lowerback 23.8399 -2.01639 3.39999
upperback 11.5276 0.841594 -2.09998
thorax -0.556239 1.7829 -4.41296
lowerneck -17.5633 -0.511214 3.98647
upperneck -2.73355 -2.16836 -1.48368
head 2.09306 -1.47867 -1.35254
rclavicle -1.64991e-014 8.54774e-015
rhumerus 82.8648 -2.98579 -52.2082
rradius 17.0915
rwrist 30.9604
rhand -11.9218 9.50644
rfingers 7.12502
rthumb 14.1323 -19.9929
lclavicle -1.64991e-014 8.54774e-015
lhumerus 85.7981 -1.66445 55.5013
lradius 12.7035
lwrist -35.4907
lhand -36.6116 -13.4051
lfingers 7.12502
lthumb -9.69997 16.3515
rfemur -65.315 -16.8063 12.6094
rtibia 113.881
rfoot -34.8355 20.8907
rtoes -33.1955
lfemur -64.8779 4.4412 -22.9838
ltibia 116.386
lfoot -29.3064 -5.88639
ltoes -27.7928
